Coordinates
version=1
nRows=8
nColumns=36
inDegrees=yes

Units are S.I. units (second, meters, Newtons, ...)
If the header above contains a line with 'inDegrees', this indicates whether rotational values are in degrees (yes) or radians (no).

endheader
time	pelvis_tilt	pelvis_list	pelvis_rotation	pelvis_tx	pelvis_ty	pelvis_tz	hip_flexion_r	hip_adduction_r	hip_rotation_r	knee_angle_r	knee_angle_r_beta	ankle_angle_r	subtalar_angle_r	mtp_angle_r	hip_flexion_l	hip_adduction_l	hip_rotation_l	knee_angle_l	knee_angle_l_beta	ankle_angle_l	subtalar_angle_l	mtp_angle_l	lumbar_extension	lumbar_bending	lumbar_rotation	arm_flex_r	arm_add_r	arm_rot_r	elbow_flex_r	pro_sup_r	arm_flex_l	arm_add_l	arm_rot_l	elbow_flex_l	pro_sup_l
      0.57000000	     -4.69936483	      6.33217033	     84.23434277	     -0.22325907	      0.94154333	      0.38550987	    -15.93005573	     -7.87663744	     -7.04795248	     34.74402665	      0.60639766	     -9.78571223	      2.75069737	     -7.50008125	     17.44508992	      5.82409786	    -13.59032078	     21.21069638	      0.37019649	     -4.68018388	     -6.95057243	     -7.50008125	    -16.31725971	     -4.72887613	      4.14005389	      0.74922164	     -5.26586525	    -25.67302080	     58.57956094	    103.36648121	     -7.60378709	     -4.43240043	    -40.05837544	     31.04181096	     84.79246217
      0.58000000	     -4.94222348	      6.19369681	     84.57888228	     -0.22473628	      0.94236690	      0.37197312	    -14.97090623	     -8.22114476	     -6.49581772	     36.79195838	      0.64214081	    -14.25119510	      1.02040850	     -7.50007402	     17.07927135	      6.52975676	    -12.06611174	     21.88335294	      0.38193656	     -3.64233033	     -8.66997327	     -7.50007402	    -15.97036426	     -4.87640833	      3.82133055	      0.25189099	     -5.13524876	    -26.02968562	     58.33750351	    103.56307456	     -7.53104181	     -4.62395254	    -39.56443277	     31.10992058	     84.88936252
      0.59000000	     -5.27846353	      5.99825045	     84.82311319	     -0.22602845	      0.94325240	      0.35888270	    -13.74950303	     -8.80213547	     -6.17060914	     38.92869629	      0.67943392	    -18.16034424	     -0.16947436	     -7.50006588	     16.53347699	      7.25764544	    -11.09917937	     21.99458647	      0.38387795	     -2.79812989	     -9.58248195	     -7.50006588	    -15.64358224	     -5.15606033	      3.59169738	     -0.21783964	     -4.98119545	    -26.43534751	     58.20206280	    103.55289519	     -7.41713728	     -4.78511598	    -39.15820383	     31.40086970	     85.40979829
      0.60000000	     -5.60002030	      5.72127414	     85.10647619	     -0.22710208	      0.94431556	      0.34628485	    -12.30933261	     -9.25234300	     -5.72569185	     41.17899591	      0.71870906	    -21.70599716	     -1.03549054	     -7.50005339	     15.92725679	      7.87375774	    -10.50128128	     21.81455762	      0.38073586	     -2.01998985	     -9.80275510	     -7.50005339	    -15.29696390	     -5.42959399	      3.35260431	     -0.65794144	     -4.74865159	    -26.92007779	     58.07846464	    104.49540653	     -7.16322417	     -5.02908502	    -38.64573987	     31.65812738	     86.50548943
      0.61000000	     -5.94041040	      5.39632083	     85.10372445	     -0.22763172	      0.94544324	      0.33420681	    -10.53930591	     -9.84241977	     -5.17468613	     43.74424196	      0.76348105	    -25.06152752	     -2.00447598	     -7.50004908	     15.28297180	      8.31368643	    -10.74431959	     21.37709534	      0.37310070	     -1.29437054	     -9.27363832	     -7.50004908	    -14.93722068	     -5.79945019	      3.37554684	     -0.99055138	     -4.50822331	    -27.31584666	     57.90892462	    102.53664388	     -6.73884093	     -5.21052624	    -38.20573786	     31.86470177	     85.75188892
      0.62000000	     -6.12083153	      5.29455955	     85.15261421	     -0.22832998	      0.94696614	      0.32224901	     -9.02413990	    -10.30499946	     -4.79198809	     46.26393131	      0.80745793	    -28.67938901	     -3.70817089	     -7.50004505	     14.33918190	      8.60200529	    -11.04681533	     20.90540484	      0.36486815	     -0.51116770	     -8.41566861	     -7.50004505	    -14.88395294	     -5.96941026	      3.07786390	     -1.07169674	     -4.37672671	    -27.40952211	     57.67209384	    102.30346461	     -6.54672642	     -5.33732187	    -37.70275548	     32.48574770	     85.31871433
      0.63000000	     -6.28802209	      5.22995525	     85.22594730	     -0.22902218	      0.94866573	      0.31053387	     -7.42243069	    -10.84909821	     -4.68584988	     48.91160023	      0.85366847	    -30.71722949	     -5.12914720	     -7.50004426	     13.31096922	      8.89678249	    -11.32125478	     20.35190657	      0.35520778	      0.21000336	     -7.59673814	     -7.50004426	    -14.94787364	     -6.13360181	      2.85563494	     -1.20280294	     -4.31165784	    -27.49564245	     57.50817957	    102.52569050	     -6.09473780	     -5.43975092	    -37.54879802	     32.91986370	     85.49819003
      0.64000000	     -6.30290105	      4.82608173	     84.94193213	     -0.22911575	      0.94997544	      0.29923556	     -5.25512226	    -11.07647969	     -3.93439441	     51.53263048	      0.89941407	    -30.97820354	     -6.97975075	     -7.50004196	     12.71233044	      8.80940739	    -12.40853196	     19.88064556	      0.34698272	      0.96986735	     -5.88835697	     -7.50004196	    -14.61731813	     -6.15189902	      2.88569256	     -1.25236223	     -4.21272375	    -27.66276142	     57.31372242	    102.67273732	     -5.81315687	     -5.51626011	    -37.13792169	     33.53643260	     85.75502964
